<mxfile host="app.diagrams.net" modified="2023-05-14T02:50:27.487Z" agent="Mozilla/5.0 (Windows NT 10.0; Win64; x64) AppleWebKit/537.36 (KHTML, like Gecko) Chrome/113.0.0.0 Safari/537.36" version="21.2.9" etag="Taor5aLUkP3l6qthlIMq" type="github">
  <diagram name="Page-1" id="kPhMbE2OzlHI0PZW0UVd">
    <mxGraphModel>
      <root>
        <mxCell id="0" />
        <mxCell id="1" parent="0" />
      </root>
    </mxGraphModel>
  </diagram>
</mxfile>
